<svg width="19" height="21" viewBox="0 0 19 21" fill="none" xmlns="http://www.w3.org/2000/svg">
<path d="M9.49121 20.7334C8.24902 20.7334 7.08008 20.4961 5.98438 20.0215C4.88867 19.5527 3.92188 18.8994 3.08398 18.0615C2.25195 17.2236 1.59863 16.2568 1.12402 15.1611C0.649414 14.0654 0.412109 12.8965 0.412109 11.6543C0.412109 10.4121 0.649414 9.24316 1.12402 8.14746C1.59863 7.05176 2.25195 6.08789 3.08398 5.25586C3.92188 4.41797 4.88574 3.76172 5.97559 3.28711C7.07129 2.8125 8.24023 2.5752 9.48242 2.5752C10.7305 2.5752 11.9023 2.8125 12.998 3.28711C14.0938 3.76172 15.0605 4.41797 15.8984 5.25586C16.7363 6.08789 17.3926 7.05176 17.8672 8.14746C18.3418 9.24316 18.5791 10.4121 18.5791 11.6543C18.5791 12.8965 18.3418 14.0654 17.8672 15.1611C17.3926 16.2568 16.7363 17.2236 15.8984 18.0615C15.0605 18.8994 14.0938 19.5527 12.998 20.0215C11.9023 20.4961 10.7334 20.7334 9.49121 20.7334ZM9.49121 13.1748C9.91309 13.1748 10.2705 13.0283 10.5635 12.7354C10.8564 12.4424 11.0029 12.085 11.0029 11.6631C11.0029 11.376 10.9297 11.1182 10.7832 10.8896C10.6367 10.6553 10.4346 10.4707 10.1768 10.3359V6.09082C10.1768 5.90332 10.1094 5.74512 9.97461 5.61621C9.8457 5.48145 9.68164 5.41406 9.48242 5.41406C9.29492 5.41406 9.13379 5.48145 8.99902 5.61621C8.86426 5.74512 8.79688 5.90332 8.79688 6.09082V10.3271C8.55078 10.4736 8.35449 10.6641 8.20801 10.8984C8.06152 11.127 7.98828 11.3818 7.98828 11.6631C7.98828 12.0791 8.13184 12.4365 8.41895 12.7354C8.71191 13.0283 9.06934 13.1748 9.49121 13.1748ZM8.47168 3.01465V1.74023C8.47168 1.45898 8.57129 1.21875 8.77051 1.01953C8.96973 0.814453 9.20996 0.711914 9.49121 0.711914C9.77246 0.711914 10.0098 0.814453 10.2031 1.01953C10.4023 1.21875 10.502 1.45898 10.502 1.74023V3.01465H8.47168ZM15.1162 5.04492L16.0479 4.13965C16.2646 3.92871 16.5254 3.82324 16.8301 3.82324C17.1055 3.82324 17.3369 3.91699 17.5244 4.10449C17.7119 4.29199 17.8057 4.52051 17.8057 4.79004C17.8057 5.07129 17.6914 5.32617 17.4629 5.55469L16.4873 6.53027L15.1162 5.04492Z" fill="white" fill-opacity="0.4"/>
</svg>
