<svg width="20" height="19" viewBox="0 0 20 19" fill="none" xmlns="http://www.w3.org/2000/svg">
<path d="M9.99121 18.7334C8.74902 18.7334 7.58008 18.4961 6.48438 18.0215C5.38867 17.5527 4.42188 16.8994 3.58398 16.0615C2.75195 15.2236 2.09863 14.2568 1.62402 13.1611C1.14941 12.0654 0.912109 10.8965 0.912109 9.6543C0.912109 8.41211 1.14941 7.24316 1.62402 6.14746C2.09863 5.05176 2.75195 4.08789 3.58398 3.25586C4.42188 2.41797 5.38574 1.76172 6.47559 1.28711C7.57129 0.8125 8.74023 0.575195 9.98242 0.575195C11.2305 0.575195 12.4023 0.8125 13.498 1.28711C14.5938 1.76172 15.5605 2.41797 16.3984 3.25586C17.2363 4.08789 17.8926 5.05176 18.3672 6.14746C18.8418 7.24316 19.0791 8.41211 19.0791 9.6543C19.0791 10.8965 18.8418 12.0654 18.3672 13.1611C17.8926 14.2568 17.2363 15.2236 16.3984 16.0615C15.5605 16.8994 14.5938 17.5527 13.498 18.0215C12.4023 18.4961 11.2334 18.7334 9.99121 18.7334ZM10 17.2393C10.6504 17.2393 11.3037 17.1514 11.96 16.9756C12.6221 16.7998 13.2461 16.5449 13.832 16.2109C14.418 15.877 14.9336 15.4727 15.3789 14.998C15.0449 14.4883 14.6025 14.0576 14.0518 13.7061C13.5068 13.3486 12.8887 13.0791 12.1973 12.8975C11.5117 12.71 10.7793 12.6162 10 12.6162C9.20312 12.6162 8.45898 12.71 7.76758 12.8975C7.07617 13.085 6.46094 13.3574 5.92188 13.7148C5.38281 14.0664 4.94629 14.4941 4.6123 14.998C5.05176 15.4727 5.56445 15.877 6.15039 16.2109C6.74219 16.5449 7.36621 16.7998 8.02246 16.9756C8.67871 17.1514 9.33789 17.2393 10 17.2393ZM10 11.0957C10.5684 11.1016 11.084 10.958 11.5469 10.665C12.0098 10.3662 12.376 9.96484 12.6455 9.46094C12.915 8.95117 13.0498 8.37988 13.0498 7.74707C13.0498 7.14941 12.9121 6.60156 12.6367 6.10352C12.3672 5.60547 12.001 5.20703 11.5381 4.9082C11.0752 4.60352 10.5625 4.45117 10 4.45117C9.42578 4.45117 8.90723 4.60352 8.44434 4.9082C7.98145 5.20703 7.6123 5.60547 7.33691 6.10352C7.06738 6.60156 6.93555 7.14941 6.94141 7.74707C6.94141 8.37988 7.07617 8.94824 7.3457 9.45215C7.61523 9.95605 7.97852 10.3545 8.43555 10.6475C8.89844 10.9404 9.41992 11.0898 10 11.0957Z" fill="white" fill-opacity="0.4"/>
</svg>
